<svg xmlns="http://www.w3.org/2000/svg" width="570" height="290" viewBox="0 0 570 290" role="img" aria-labelledby="title desc">
<title id="title">SSSocks</title><desc id="desc">resilient commerce. An e-commerce backend designed around clean architecture, fault tolerance, tests, and high-load thinking.</desc>
<defs>
  <pattern id="grid" width="24" height="24" patternUnits="userSpaceOnUse"><path d="M24 0H0V24" fill="none" stroke="#1E293B" stroke-width="1" opacity=".32"/></pattern>
  <pattern id="dots" width="18" height="18" patternUnits="userSpaceOnUse"><circle cx="2" cy="2" r="1" fill="#1E293B" opacity=".75"/></pattern>
  <linearGradient id="spectrum" x1="0" y1="0" x2="1" y2="1"><stop stop-color="#69A9FF"/><stop offset=".34" stop-color="#A78BFA"/><stop offset=".68" stop-color="#FF4FD8"/><stop offset="1" stop-color="#FFB454"/></linearGradient>
  <linearGradient id="cool" x1="0" y1="0" x2="1" y2="0"><stop stop-color="#62F5C5"/><stop offset="1" stop-color="#69A9FF"/></linearGradient>
  <filter id="glow" x="-50%" y="-50%" width="200%" height="200%"><feGaussianBlur stdDeviation="5" result="b"/><feMerge><feMergeNode in="b"/><feMergeNode in="SourceGraphic"/></feMerge></filter>
  <filter id="shadow" x="-20%" y="-20%" width="140%" height="140%"><feDropShadow dx="0" dy="12" stdDeviation="16" flood-color="#000" flood-opacity=".35"/></filter>
</defs>
<rect width="570" height="290" rx="24" fill="#070A0F"/><rect x="1" y="1" width="568" height="288" rx="23" fill="none" stroke="#2A3549"/>
<rect x="0" y="0" width="10" height="290" rx="5" fill="#67E8F9"/><rect width="570" height="290" rx="24" fill="url(#dots)"/>
<text x="34" y="42" font-family="ui-monospace,SFMono-Regular,Menlo,Consolas,monospace" font-size="11" font-weight="700" letter-spacing="1.6" fill="#67E8F9">RESILIENT COMMERCE</text>
<text x="34" y="91" font-family="Inter,Segoe UI,Arial,sans-serif" font-size="36" font-weight="900" letter-spacing="-1.2" fill="#F8FAFC">SSSocks</text>
<text x="34" y="128" font-family="Inter,Segoe UI,Arial,sans-serif" font-size="14" fill="#94A3B8">An e-commerce backend designed around clean architecture,</text>
<text x="34" y="151" font-family="Inter,Segoe UI,Arial,sans-serif" font-size="14" fill="#94A3B8">fault tolerance, tests, and high-load thinking.</text>
<rect x="34" y="190" width="54" height="27" rx="13.5" fill="#111827" stroke="#67E8F9" stroke-opacity=".55"/><text x="61.0" y="208" text-anchor="middle" font-family="ui-monospace,SFMono-Regular,Menlo,Consolas,monospace" font-size="10" font-weight="700" fill="#F8FAFC">Nette</text><rect x="96" y="190" width="54" height="27" rx="13.5" fill="#111827" stroke="#67E8F9" stroke-opacity=".55"/><text x="123.0" y="208" text-anchor="middle" font-family="ui-monospace,SFMono-Regular,Menlo,Consolas,monospace" font-size="10" font-weight="700" fill="#F8FAFC">Redis</text><rect x="158" y="190" width="54" height="27" rx="13.5" fill="#111827" stroke="#67E8F9" stroke-opacity=".55"/><text x="185.0" y="208" text-anchor="middle" font-family="ui-monospace,SFMono-Regular,Menlo,Consolas,monospace" font-size="10" font-weight="700" fill="#F8FAFC">MySQL</text><rect x="220" y="190" width="64" height="27" rx="13.5" fill="#111827" stroke="#67E8F9" stroke-opacity=".55"/><text x="252.0" y="208" text-anchor="middle" font-family="ui-monospace,SFMono-Regular,Menlo,Consolas,monospace" font-size="10" font-weight="700" fill="#F8FAFC">PHPStan</text><text x="34" y="257" font-family="ui-monospace,SFMono-Regular,Menlo,Consolas,monospace" font-size="11" font-weight="700" fill="#A78BFA">OPEN REPOSITORY ↗</text><g transform="translate(420,25)"><path d="M35 0h58v76c0 18 12 31 32 31h20v40H95c-39 0-60-25-60-58z" fill="#67E8F9"/><path d="M35 28h58M44 91c24 0 41 14 49 34" fill="none" stroke="#A78BFA" stroke-width="10"/><rect x="35" y="0" width="58" height="17" rx="8" fill="#A78BFA"/><circle cx="128" cy="125" r="7" fill="#F6FF5C"/></g></svg>