<svg xmlns="http://www.w3.org/2000/svg" width="570" height="290" viewBox="0 0 570 290" role="img" aria-labelledby="title desc">
<title id="title">UTEACH.AI</title><desc id="desc">speech × education. Lecture transcription tooling used at the University of West Bohemia, with async processing and CI/CD.</desc>
<defs>
  <pattern id="grid" width="24" height="24" patternUnits="userSpaceOnUse"><path d="M24 0H0V24" fill="none" stroke="#1E293B" stroke-width="1" opacity=".32"/></pattern>
  <pattern id="dots" width="18" height="18" patternUnits="userSpaceOnUse"><circle cx="2" cy="2" r="1" fill="#1E293B" opacity=".75"/></pattern>
  <linearGradient id="spectrum" x1="0" y1="0" x2="1" y2="1"><stop stop-color="#69A9FF"/><stop offset=".34" stop-color="#A78BFA"/><stop offset=".68" stop-color="#FF4FD8"/><stop offset="1" stop-color="#FFB454"/></linearGradient>
  <linearGradient id="cool" x1="0" y1="0" x2="1" y2="0"><stop stop-color="#62F5C5"/><stop offset="1" stop-color="#69A9FF"/></linearGradient>
  <filter id="glow" x="-50%" y="-50%" width="200%" height="200%"><feGaussianBlur stdDeviation="5" result="b"/><feMerge><feMergeNode in="b"/><feMergeNode in="SourceGraphic"/></feMerge></filter>
  <filter id="shadow" x="-20%" y="-20%" width="140%" height="140%"><feDropShadow dx="0" dy="12" stdDeviation="16" flood-color="#000" flood-opacity=".35"/></filter>
</defs>
<rect width="570" height="290" rx="24" fill="#070A0F"/><rect x="1" y="1" width="568" height="288" rx="23" fill="none" stroke="#2A3549"/>
<rect x="0" y="0" width="10" height="290" rx="5" fill="#69A9FF"/><rect width="570" height="290" rx="24" fill="url(#dots)"/>
<text x="34" y="42" font-family="ui-monospace,SFMono-Regular,Menlo,Consolas,monospace" font-size="11" font-weight="700" letter-spacing="1.6" fill="#69A9FF">SPEECH × EDUCATION</text>
<text x="34" y="91" font-family="Inter,Segoe UI,Arial,sans-serif" font-size="36" font-weight="900" letter-spacing="-1.2" fill="#F8FAFC">UTEACH.AI</text>
<text x="34" y="128" font-family="Inter,Segoe UI,Arial,sans-serif" font-size="14" fill="#94A3B8">Lecture transcription tooling used at the University</text>
<text x="34" y="151" font-family="Inter,Segoe UI,Arial,sans-serif" font-size="14" fill="#94A3B8">of West Bohemia, with async processing and CI/CD.</text>
<rect x="34" y="190" width="57" height="27" rx="13.5" fill="#111827" stroke="#69A9FF" stroke-opacity=".55"/><text x="62.5" y="208" text-anchor="middle" font-family="ui-monospace,SFMono-Regular,Menlo,Consolas,monospace" font-size="10" font-weight="700" fill="#F8FAFC">Python</text><rect x="99" y="190" width="54" height="27" rx="13.5" fill="#111827" stroke="#69A9FF" stroke-opacity=".55"/><text x="126.0" y="208" text-anchor="middle" font-family="ui-monospace,SFMono-Regular,Menlo,Consolas,monospace" font-size="10" font-weight="700" fill="#F8FAFC">ASR</text><rect x="161" y="190" width="57" height="27" rx="13.5" fill="#111827" stroke="#69A9FF" stroke-opacity=".55"/><text x="189.5" y="208" text-anchor="middle" font-family="ui-monospace,SFMono-Regular,Menlo,Consolas,monospace" font-size="10" font-weight="700" fill="#F8FAFC">Docker</text><rect x="226" y="190" width="54" height="27" rx="13.5" fill="#111827" stroke="#69A9FF" stroke-opacity=".55"/><text x="253.0" y="208" text-anchor="middle" font-family="ui-monospace,SFMono-Regular,Menlo,Consolas,monospace" font-size="10" font-weight="700" fill="#F8FAFC">AWS</text><text x="34" y="257" font-family="ui-monospace,SFMono-Regular,Menlo,Consolas,monospace" font-size="11" font-weight="700" fill="#F6FF5C">OPEN REPOSITORY ↗</text><g transform="translate(386,44)"><rect width="160" height="105" rx="18" fill="#101827" stroke="#27364E"/><rect x="16" y="41.5" width="7" height="22" rx="3.5" fill="#69A9FF"/><rect x="28" y="31.5" width="7" height="42" rx="3.5" fill="#F6FF5C"/><rect x="40" y="20.5" width="7" height="64" rx="3.5" fill="#69A9FF"/><rect x="52" y="8.5" width="7" height="88" rx="3.5" fill="#F6FF5C"/><rect x="64" y="25.5" width="7" height="54" rx="3.5" fill="#69A9FF"/><rect x="76" y="1.5" width="7" height="102" rx="3.5" fill="#F6FF5C"/><rect x="88" y="15.5" width="7" height="74" rx="3.5" fill="#69A9FF"/><rect x="100" y="35.5" width="7" height="34" rx="3.5" fill="#F6FF5C"/><rect x="112" y="23.5" width="7" height="58" rx="3.5" fill="#69A9FF"/><rect x="124" y="6.0" width="7" height="93" rx="3.5" fill="#F6FF5C"/><rect x="136" y="28.5" width="7" height="48" rx="3.5" fill="#69A9FF"/></g></svg>